<?xml version="1.0" encoding="UTF-8"?>
<svg version="1.1" xmlns="http://www.w3.org/2000/svg" width="500" height="500">
<path d="M0 0 C7.59 0 15.18 0 23 0 C24.12277344 3.30773437 25.24554688 6.61546875 26.40234375 10.0234375 C27.51925394 13.3124073 28.63643793 16.60128394 29.75369263 19.89013672 C30.5403395 22.20584862 31.32685971 24.52160355 32.11325073 26.83740234 C36.90619176 40.94963933 41.70128959 55.06033258 46.66186523 69.11474609 C46.98098877 70.02562988 47.3001123 70.93651367 47.62890625 71.875 C47.89775635 72.63554687 48.16660645 73.39609375 48.44360352 74.1796875 C49 76 49 76 49 78 C42.73 78 36.46 78 30 78 C29.175 75.56625 28.35 73.1325 27.5 70.625 C27.23896484 69.86010254 26.97792969 69.09520508 26.70898438 68.30712891 C25 63.22222222 25 63.22222222 25 61 C11.635 61.495 11.635 61.495 -2 62 C-3.6037636 66.89040176 -3.6037636 66.89040176 -5.20092773 71.78295898 C-6.88888889 76.88888889 -6.88888889 76.88888889 -8 78 C-9.34267413 78.08631874 -10.68974322 78.10706473 -12.03515625 78.09765625 C-12.84404297 78.09443359 -13.65292969 78.09121094 -14.48632812 78.08789062 C-15.33646484 78.07951172 -16.18660156 78.07113281 -17.0625 78.0625 C-17.91650391 78.05798828 -18.77050781 78.05347656 -19.65039062 78.04882812 C-21.76695663 78.03700373 -23.88348685 78.01906769 -26 78 C-24.46031812 70.10069319 -21.95956497 62.64827631 -19.31640625 55.05859375 C-18.85522622 53.72312499 -18.39445392 52.38751537 -17.93406677 51.05177307 C-16.97292153 48.26630931 -16.00864933 45.48195718 -15.04174805 42.69848633 C-13.80935812 39.15073417 -12.58214617 35.60122074 -11.35694981 32.05097866 C-10.17838082 28.6362925 -8.9976149 25.22236756 -7.81640625 21.80859375 C-7.59489962 21.16810026 -7.37339298 20.52760677 -7.14517403 19.86770439 C-6.51014412 18.03306071 -5.87338586 16.19901555 -5.23657227 14.36499023 C-4.87620377 13.32624252 -4.51583527 12.28749481 -4.14454651 11.2172699 C-2.80849715 7.46169391 -1.39963014 3.73234703 0 0 Z M11 19 C6.545 32.86 6.545 32.86 2 47 C7.94 47 13.88 47 20 47 C18.64909235 40.50121609 16.92169754 34.24896681 14.875 27.9375 C14.59785156 27.07189453 14.32070312 26.20628906 14.03515625 25.31445312 C13.36031038 23.2084686 12.68188659 21.10371313 12 19 C11.67 19 11.34 19 11 19 Z " fill="#000000" transform="translate(90,211)"/>
<path d="M0 0 C5.05408481 5.42389589 6.672168 10.43341032 7.5625 17.75 C4.81013726 17.91225719 2.06732524 18.0309328 -0.6875 18.125 C-1.46480469 18.17527344 -2.24210937 18.22554687 -3.04296875 18.27734375 C-5.31821567 18.33568341 -7.2296109 18.31268471 -9.4375 17.75 C-11.796875 14.8515625 -11.796875 14.8515625 -13.4375 11.75 C-18.1107531 8.63449793 -22.97072714 9.03630287 -28.4375 9.75 C-31.8856268 11.60932903 -31.8856268 11.60932903 -33.4375 14.75 C-34.09620305 17.88332411 -34.09620305 17.88332411 -32.4375 20.75 C-27.64631784 24.21162911 -21.57190778 25.26854198 -15.9375 26.6875 C-6.6667046 29.03824725 1.36482769 32.3037825 6.5625 40.75 C9.50986492 47.42250669 8.88445868 54.31290744 6.3125 61 C2.32692444 67.26304731 -2.90971181 71.49677291 -10.0625 73.4765625 C-22.25393289 75.90836427 -34.47142794 75.18398307 -45.2421875 68.65625 C-50.12315207 65.06230594 -52.81681094 60.10902317 -53.90234375 54.234375 C-54.14965537 52.07971483 -54.30221354 49.91458335 -54.4375 47.75 C-48.8275 47.75 -43.2175 47.75 -37.4375 47.75 C-36.921875 49.008125 -36.40625 50.26625 -35.875 51.5625 C-34.18721032 54.92025059 -33.49800682 55.71346758 -30.125 57.75 C-23.24128842 59.61676924 -18.61395225 59.01988648 -12.4375 55.75 C-10.19123043 52.94265527 -10.19123043 52.94265527 -10.3125 49.8125 C-11.79149543 45.78634578 -13.4112743 45.43014994 -17.14208984 43.68041992 C-20.78067476 42.2055585 -24.50360748 41.29680914 -28.3125 40.375 C-36.61394359 38.19631751 -45.26884571 35.89405336 -50 28.125 C-52.66414572 21.87004918 -53.48975803 16.3055421 -51.25 9.6875 C-48.13459534 2.28484123 -44.00884848 -0.85539581 -36.9375 -4.26953125 C-25.26037931 -8.84915202 -10.15855211 -7.45465889 0 0 Z " fill="#B91930" transform="translate(294.4375,216.25)"/>
<path d="M0 0 C5.61 0 11.22 0 17 0 C17.33 8.58 17.66 17.16 18 26 C20.31 24.02 22.62 22.04 25 20 C31.01110849 17.99629717 38.55718026 17.7805585 44.55859375 19.90625 C49.8410496 23.02180052 53.05056236 27.15168707 55 33 C55.08650584 34.48844716 55.11770173 35.98048257 55.11352539 37.47143555 C55.11344986 38.37214279 55.11337433 39.27285004 55.11329651 40.20085144 C55.10813522 41.16968765 55.10297394 42.13852386 55.09765625 43.13671875 C55.0962413 44.13129593 55.09482635 45.12587311 55.09336853 46.15058899 C55.08776761 49.32958982 55.07521496 52.50852043 55.0625 55.6875 C55.05748512 57.84179586 55.05292219 59.99609282 55.04882812 62.15039062 C55.03779787 67.43362084 55.02053262 72.71679851 55 78 C49.39 78 43.78 78 38 78 C37.98582031 75.24269531 37.97164063 72.48539062 37.95703125 69.64453125 C37.926396 66.96691738 37.88731122 64.28955051 37.84741211 61.61206055 C37.82425012 59.75472787 37.8098406 57.89726418 37.80444336 56.03979492 C37.79514038 53.365545 37.75412303 50.69335032 37.70703125 48.01953125 C37.7109639 47.19226028 37.71489655 46.36498932 37.71894836 45.51264954 C37.61111265 41.228274 37.36360824 39.47557005 34.6784668 35.96362305 C31.19787018 33.41194694 29.22969913 33.46167466 25 34 C21.61968411 35.18767855 21.06783183 35.89825225 19 39 C18.75855837 41.96884465 18.62692903 44.851868 18.5859375 47.82421875 C18.56657135 48.68561966 18.5472052 49.54702057 18.5272522 50.43452454 C18.4674797 53.18541568 18.42108052 55.93634873 18.375 58.6875 C18.33681806 60.55275261 18.2977662 62.41798763 18.2578125 64.28320312 C18.16014256 68.85537714 18.0805564 73.42736413 18 78 C12.06 78 6.12 78 0 78 C0 52.26 0 26.52 0 0 Z " fill="#000000" transform="translate(312,211)"/>
<path d="M0 0 C0.5671875 0.36996094 1.134375 0.73992187 1.71875 1.12109375 C3.08 1.95640625 3.08 1.95640625 4.46875 2.80859375 C11.13936575 9.66450438 13.71589372 18.14052424 14.03125 27.49609375 C13.81458747 36.71062355 11.24871631 44.47267 4.71875 51.12109375 C-2.2029241 56.97102476 -10.07608913 58.50613493 -18.96875 57.93359375 C-27.45339243 56.87301345 -33.55562273 53.40683674 -39.28125 47.12109375 C-45.01303951 38.14458432 -45.13904478 28.47213687 -44.28125 18.12109375 C-43.49923421 14.61615551 -42.33282318 12.05277968 -40.28125 9.12109375 C-39.53488281 8.04794922 -39.53488281 8.04794922 -38.7734375 6.953125 C-29.91509257 -4.35671538 -12.61693395 -7.01210367 0 0 Z M-24.28125 14.12109375 C-27.8794074 20.39258094 -28.32466505 27.41359329 -26.77734375 34.39453125 C-25.31034142 38.90451555 -23.57426884 41.77944711 -19.28125 44.12109375 C-14.93182808 44.57892764 -12.00368289 44.40136704 -8.28125 42.12109375 C-3.50051577 35.21558875 -3.32507726 28.34417931 -4.28125 20.12109375 C-5.39187916 16.33588824 -6.70503671 13.08664429 -10.20703125 10.94140625 C-15.87174451 8.70112417 -20.27224317 9.66664171 -24.28125 14.12109375 Z " fill="#010000" transform="translate(421.28125,232.87890625)"/>
<path d="M0 0 C5.28 0 10.56 0 16 0 C16.66 2.31 17.32 4.62 18 7 C18.7425 6.21625 19.485 5.4325 20.25 4.625 C24.75301443 0.32666804 27.64238658 -0.2923948 33.875 -0.3125 C35.06867188 -0.32925781 36.26234375 -0.34601563 37.4921875 -0.36328125 C42.82885961 0.18940306 46.77130655 2.15966814 50.25 6.25 C50.72953125 6.79140625 51.2090625 7.3328125 51.703125 7.890625 C55.35263625 13.82657703 55.27420672 20.12571513 55.1953125 26.87109375 C55.1924826 27.793423 55.18965271 28.71575226 55.18673706 29.66603088 C55.17560974 32.58999013 55.15051912 35.51363451 55.125 38.4375 C55.11496057 40.42903201 55.1058364 42.42056886 55.09765625 44.41210938 C55.07569483 49.2748595 55.04121673 54.1373765 55 59 C49.39 59 43.78 59 38 59 C37.96261719 56.38707031 37.92523438 53.77414062 37.88671875 51.08203125 C37.84046961 48.54345464 37.78924836 46.0050235 37.73754883 43.46655273 C37.70435346 41.70622645 37.67630476 39.94579512 37.65356445 38.18530273 C37.6199188 35.65042475 37.5675994 33.11650477 37.51171875 30.58203125 C37.50532883 29.79850784 37.4989389 29.01498444 37.49235535 28.2077179 C37.37047883 23.64899051 36.85871299 20.60659042 34 17 C30.22116344 14.48077563 28.43408549 14.86126107 24.09375 15.453125 C21.82103918 15.8687947 21.82103918 15.8687947 20 17.875 C17.91097502 22.31417809 17.78780922 26.35411815 17.68359375 31.16796875 C17.66281265 31.96278152 17.64203156 32.7575943 17.62062073 33.57649231 C17.55527913 36.11340763 17.49631192 38.65042573 17.4375 41.1875 C17.39430014 42.90821372 17.35068537 44.62891708 17.30664062 46.34960938 C17.19883323 50.56630247 17.0996458 54.78307451 17 59 C11.39 59 5.78 59 0 59 C0 39.53 0 20.06 0 0 Z " fill="#000000" transform="translate(147,230)"/>
<path d="M0 0 C1.12535156 0.00580078 1.12535156 0.00580078 2.2734375 0.01171875 C3.02367187 0.00785156 3.77390625 0.00398437 4.546875 0 C10.14682697 0.01010822 10.14682697 0.01010822 11.2734375 1.13671875 C11.36719803 2.947269 11.3908786 4.76149076 11.38696289 6.57446289 C11.38688736 7.73559097 11.38681183 8.89671906 11.38673401 10.09303284 C11.38157272 11.35655075 11.37641144 12.62006866 11.37109375 13.921875 C11.3696788 15.20783066 11.36826385 16.49378632 11.36680603 17.81871033 C11.36298168 21.24315318 11.35315212 24.66755384 11.34210205 28.09197998 C11.33188614 31.58410064 11.32730803 35.07622809 11.32226562 38.56835938 C11.31152976 45.42449828 11.29393364 52.28060215 11.2734375 59.13671875 C5.3334375 59.13671875 -0.6065625 59.13671875 -6.7265625 59.13671875 C-6.74911799 51.59173286 -6.76748019 44.04675944 -6.77837467 36.50174809 C-6.78360239 32.9986299 -6.790698 29.4955359 -6.80200195 25.99243164 C-6.81490456 21.96891034 -6.81979162 17.94541461 -6.82421875 13.921875 C-6.83196068 12.02659813 -6.83196068 12.02659813 -6.83985901 10.09303284 C-6.83993454 8.93190475 -6.84001007 7.77077667 -6.84008789 6.57446289 C-6.84341881 5.03224815 -6.84341881 5.03224815 -6.84681702 3.45887756 C-6.61137619 -1.08757107 -3.92771994 0.00708975 0 0 Z " fill="#000000" transform="translate(219.7265625,229.86328125)"/>
<path d="M0 0 C2.09375 0.41015625 2.09375 0.41015625 4.65625 1.91015625 C6.68020748 5.43008231 6.92458813 8.44331144 6.09375 12.41015625 C3.54507672 15.72343151 1.49067449 17.21966655 -2.65625 17.78515625 C-7.14757722 17.26692619 -8.91929516 15.75270096 -11.90625 12.41015625 C-12.76926172 8.01664205 -12.4341101 6.21046027 -9.96875 2.47265625 C-6.3673819 0.04724508 -4.25713516 -0.27671379 0 0 Z " fill="#010101" transform="translate(224.90625,206.58984375)"/>
<path d="M0 0 C0.66 1.98 1.32 3.96 2 6 C1.43410156 6.34933594 0.86820312 6.69867188 0.28515625 7.05859375 C-0.44832031 7.51363281 -1.18179687 7.96867188 -1.9375 8.4375 C-3.03384766 9.11619141 -3.03384766 9.11619141 -4.15234375 9.80859375 C-5.93899809 10.86864033 -5.93899809 10.86864033 -7 12 C-7.61317388 17.27329537 -6.16733542 19.84287226 -3 24 C-3.66 25.32 -4.32 26.64 -5 28 C-5.99 28 -6.98 28 -8 28 C-12.79787848 22.85941592 -14.44063551 19.17988592 -14.33984375 12.28125 C-13.76289396 8.40839165 -11.82454567 6.5841588 -9 4 C-3.19314642 0 -3.19314642 0 0 0 Z " fill="#AE1C31" transform="translate(437,195)"/>
<path d="M0 0 C5.39078978 3.19454209 7.6410349 7.40786509 10 13 C8.02 13.99 6.04 14.98 4 16 C3.60167969 15.36191406 3.20335937 14.72382813 2.79296875 14.06640625 C1.99826172 12.82697266 1.99826172 12.82697266 1.1875 11.5625 C0.66542969 10.73878906 0.14335937 9.91507813 -0.39453125 9.06640625 C-1.90960713 6.72172214 -1.90960713 6.72172214 -5 6 C-8.5236125 7.08418846 -11.15314251 8.68033834 -14 11 C-15.32 10.34 -16.64 9.68 -18 9 C-18 5 -18 5 -16.6015625 3.515625 C-11.15841219 0.03028765 -6.43727962 -1.31769818 0 0 Z " fill="#B11B30" transform="translate(413,214)"/>
<path d="M0 0 C3.97184847 1.32394949 4.90693363 3.16325026 6.96484375 6.6875 C8.70758829 10.58072554 9.15046898 13.86550211 8 18 C5.20987791 22.4202206 1.92073506 26.04154745 -3 28 C-3.99 28 -4.98 28 -6 28 C-6.66 26.35 -7.32 24.7 -8 23 C-7.3503125 22.63648438 -6.700625 22.27296875 -6.03125 21.8984375 C-0.81176609 19.00941626 -0.81176609 19.00941626 1.8125 14 C0.8422562 10.41756137 -0.85997697 8.00940739 -3 5 C-3 4.01 -3 3.02 -3 2 C-2.01 1.34 -1.02 0.68 0 0 Z " fill="#AE1A30" transform="translate(396,185)"/>
<path d="M0 0 C0.86625 1.7325 0.86625 1.7325 1.75 3.5 C3.42649258 6.57356973 3.76736309 6.91052427 7.25 8.25 C12.20781273 7.91947915 15.09680535 5.92993053 19 3 C22 6.75 22 6.75 22 9 C20.35546875 10.25390625 20.35546875 10.25390625 18.1875 11.5625 C17.12595703 12.21412109 17.12595703 12.21412109 16.04296875 12.87890625 C11.92952178 15.13618977 8.63324363 15.60763851 4 15 C-1.7106523 11.46882601 -4.93750925 7.31637792 -7 1 C-3.375 -1.125 -3.375 -1.125 0 0 Z " fill="#B21B31" transform="translate(411,180)"/>
<path d="M0 0 C3.96928208 1.32309403 4.88373694 3.17162512 6.9921875 6.65625 C8.61361044 10.42700101 8.4189666 13.9779206 8 18 C7.67 18 7.34 18 7 18 C7 16.35 7 14.7 7 13 C6.34 13 5.68 13 5 13 C5 12.34 5 11.68 5 11 C4.34 10.67 3.68 10.34 3 10 C3 12.31 3 14.62 3 17 C2.67 17 2.34 17 2 17 C1.731875 15.7625 1.46375 14.525 1.1875 13.25 C0.35251254 9.84397202 -0.77177117 7.73464448 -3 5 C-3 4.01 -3 3.02 -3 2 C-2.01 1.34 -1.02 0.68 0 0 Z " fill="#A61F34" transform="translate(396,185)"/>
<path d="M0 0 C5.61 0 11.22 0 17 0 C16.67 0.66 16.34 1.32 16 2 C11.05 1.67 6.1 1.34 1 1 C2.485 1.99 2.485 1.99 4 3 C3.67 5.64 3.34 8.28 3 11 C3.66 11 4.32 11 5 11 C4.67 12.32 4.34 13.64 4 15 C1.00137961 9.91538281 0.43785905 5.77973941 0 0 Z " fill="#9F1E2D" transform="translate(240,264)"/>
<path d="M0 0 C1.32 1.65 2.64 3.3 4 5 C1.94766315 7.2477975 0.99332739 8.0022242 -2 9 C-3.32 6.36 -4.64 3.72 -6 1 C-5.34 1 -4.68 1 -4 1 C-3.34 1.66 -2.68 2.32 -2 3 C-1.34 2.01 -0.68 1.02 0 0 Z " fill="#A61F35" transform="translate(419,221)"/>
<path d="M0 0 C0.99 0.33 1.98 0.66 3 1 C2.67 1.66 2.34 2.32 2 3 C2.66 3 3.32 3 4 3 C4 4.65 4 6.3 4 8 C2.68 8 1.36 8 0 8 C0 5.36 0 2.72 0 0 Z " fill="#BE162F" transform="translate(399,195)"/>
<path d="M0 0 C0.99 0.33 1.98 0.66 3 1 C2.67 1.66 2.34 2.32 2 3 C1.01 2.67 0.02 2.34 -1 2 C-0.65213292 3.97536745 -0.65213292 3.97536745 0 6 C0.66 6.33 1.32 6.66 2 7 C1.67 8.32 1.34 9.64 1 11 C-1.475 7.04 -1.475 7.04 -4 3 C-2.1875 1.4375 -2.1875 1.4375 0 0 Z " fill="#9B2535" transform="translate(408,179)"/>
<path d="M0 0 C0.66 0.33 1.32 0.66 2 1 C1.67 2.32 1.34 3.64 1 5 C1.66 5 2.32 5 3 5 C3 4.34 3 3.68 3 3 C4.32 3.33 5.64 3.66 7 4 C5.68 4.99 4.36 5.98 3 7 C1.68 6.34 0.36 5.68 -1 5 C-1 1 -1 1 0 0 Z " fill="#9B2031" transform="translate(396,218)"/>
<path d="M0 0 C0.99 0.33 1.98 0.66 3 1 C3 2.65 3 4.3 3 6 C2.01 6.33 1.02 6.66 0 7 C-0.66 5.35 -1.32 3.7 -2 2 C-1.34 1.34 -0.68 0.68 0 0 Z " fill="#B51C35" transform="translate(396,185)"/>
<path d="M0 0 C3.77545388 1.09068668 6.47043472 1.9083091 9 5 C8.01 5.495 8.01 5.495 7 6 C1.125 2.25 1.125 2.25 0 0 Z " fill="#A31A32" transform="translate(248,247)"/>
<path d="M0 0 C0.99 1.32 1.98 2.64 3 4 C1.68 4 0.36 4 -1 4 C-1 4.66 -1 5.32 -1 6 C-1.66 6 -2.32 6 -3 6 C-2.625 3.5625 -2.625 3.5625 -2 1 C-1.34 0.67 -0.68 0.34 0 0 Z " fill="#BB182D" transform="translate(400,217)"/>
<path d="M0 0 C2.64 0.99 5.28 1.98 8 3 C8 3.33 8 3.66 8 4 C5.69 4 3.38 4 1 4 C0.67 2.68 0.34 1.36 0 0 Z " fill="#AA2033" transform="translate(414,187)"/>
</svg>
