<?xml version="1.0" encoding="UTF-8"?>
<svg version="1.1" xmlns="http://www.w3.org/2000/svg" width="500" height="150">
<path d="M0 0 C9.57 0 19.14 0 29 0 C32.16693794 7.60065105 35.15674949 15.02935626 37.75 22.80859375 C38.08548355 23.80233505 38.4209671 24.79607635 38.76661682 25.81993103 C39.84805507 29.02457255 40.92404185 32.23101489 42 35.4375 C43.50617273 39.90854829 45.01586956 44.37839757 46.52734375 48.84765625 C46.90326157 49.95971436 47.27917938 51.07177246 47.66648865 52.2175293 C50.06245295 59.28677102 52.50691388 66.33692427 55.00390625 73.37109375 C55.31033051 74.23514328 55.61675476 75.09919281 55.9324646 75.98942566 C57.35910642 80.00603016 58.79448123 84.01928994 60.24023438 88.02905273 C60.74493825 89.44379537 61.24950431 90.85858718 61.75390625 92.2734375 C62.19033447 93.48435059 62.6267627 94.69526367 63.07641602 95.94287109 C64 99 64 99 64 103 C56.08 103 48.16 103 40 103 C38.845 99.57625 37.69 96.1525 36.5 92.625 C36.13455078 91.54686035 35.76910156 90.4687207 35.39257812 89.35791016 C34.9662207 88.08633057 34.9662207 88.08633057 34.53125 86.7890625 C34.23798828 85.91975098 33.94472656 85.05043945 33.64257812 84.15478516 C33 82 33 82 33 80 C21.12 80.33 9.24 80.66 -3 81 C-5.2619525 87.86500943 -5.2619525 87.86500943 -7.51733398 94.73217773 C-7.79907471 95.58239502 -8.08081543 96.4326123 -8.37109375 97.30859375 C-8.65911865 98.18314209 -8.94714355 99.05769043 -9.24389648 99.95874023 C-10 102 -10 102 -11 103 C-12.70772358 103.08713831 -14.41898649 103.10700007 -16.12890625 103.09765625 C-17.68061523 103.09282227 -17.68061523 103.09282227 -19.26367188 103.08789062 C-20.35228516 103.07951172 -21.44089844 103.07113281 -22.5625 103.0625 C-24.2012207 103.05573242 -24.2012207 103.05573242 -25.87304688 103.04882812 C-28.58208495 103.03699826 -31.29101599 103.02051543 -34 103 C-35 101 -35 101 -34.41722107 98.71286011 C-34.08416458 97.75429108 -33.75110809 96.79572205 -33.40795898 95.80810547 C-33.03217712 94.71479416 -32.65639526 93.62148285 -32.26922607 92.49504089 C-31.84909241 91.29784927 -31.42895874 90.10065765 -30.99609375 88.8671875 C-30.56588928 87.62266312 -30.13568481 86.37813873 -29.69244385 85.09590149 C-28.52453581 81.71797383 -27.34733229 78.34335398 -26.16830063 74.9692955 C-24.95497079 71.49218954 -23.75007433 68.01216398 -22.54418945 64.5324707 C-19.92476041 56.97937984 -17.29274953 49.43071212 -14.65737915 41.88317108 C-13.64638984 38.98702533 -12.63672266 36.09041887 -11.62695312 33.19384766 C-7.76669291 22.12379656 -3.89131182 11.05917359 0 0 Z M14 26 C12.43157477 30.82321095 10.86504315 35.64703108 9.30029297 40.47143555 C8.76728995 42.11385882 8.23376229 43.75611193 7.69970703 45.39819336 C6.93385277 47.75330178 6.16986385 50.1090081 5.40625 52.46484375 C5.16563843 53.20339096 4.92502686 53.94193817 4.67712402 54.7028656 C3.50612347 57.79054086 3.50612347 57.79054086 3 61 C10.92 61 18.84 61 27 61 C25.47700546 56.1737882 23.94960087 51.34948225 22.41015625 46.52856445 C21.88756515 44.88717991 21.36769807 43.24492554 20.85058594 41.60180664 C20.10801472 39.24392963 19.35579195 36.88932596 18.6015625 34.53515625 C18.3712735 33.79660904 18.1409845 33.05806183 17.90371704 32.2971344 C17.32646129 30.51186275 16.67011292 28.7525318 16 27 C15.34 26.67 14.68 26.34 14 26 Z " fill="#000000" transform="translate(40,42)"/>
<path d="M0 0 C6.41071222 5.92072148 9.10902537 12.57208284 9.984375 21.1796875 C9.99210937 22.08074219 9.99210937 22.08074219 10 23 C9 24 9 24 6.95874023 24.11352539 C5.64691772 24.10567017 5.64691772 24.10567017 4.30859375 24.09765625 C3.36435547 24.09443359 2.42011719 24.09121094 1.44726562 24.08789062 C0.45404297 24.07951172 -0.53917969 24.07113281 -1.5625 24.0625 C-2.55958984 24.05798828 -3.55667969 24.05347656 -4.58398438 24.04882812 C-7.05604849 24.03700007 -9.52799518 24.02051849 -12 24 C-12.16943115 23.37424072 -12.3388623 22.74848145 -12.51342773 22.10375977 C-12.75520752 21.28705811 -12.9969873 20.47035645 -13.24609375 19.62890625 C-13.59305298 18.41182983 -13.59305298 18.41182983 -13.94702148 17.17016602 C-15.2468222 14.49130477 -16.3184747 13.96772208 -19.0625 12.9375 C-26.77336449 11.09441532 -34.06635578 10.89641464 -41 15 C-43.41569839 17.79315126 -43.9577416 19.32386558 -44.1875 23 C-42.41422675 27.4798482 -39.23642964 28.93284948 -35 31 C-31.30147917 32.22421902 -27.54846771 33.08228397 -23.75 33.9375 C-12.20906016 36.75790848 -0.29180448 39.80366059 7 50 C11.73190936 57.99480805 12.40457178 66.77599131 10.375 75.76953125 C7.44088512 84.29680263 1.75494211 89.91295794 -6.25 93.875 C-19.43879509 99.29280379 -35.93340228 100.10881539 -49.25390625 94.671875 C-56.35051501 91.22370682 -62.2051764 87.98264285 -66.25 81 C-66.75015625 80.154375 -67.2503125 79.30875 -67.765625 78.4375 C-70.50522549 73.027656 -70 69.40026023 -70 63 C-63.07 63 -56.14 63 -49 63 C-47.68 65.64 -46.36 68.28 -45 71 C-40.53719563 75.46280437 -35.84975471 77.06650454 -29.625 77.3125 C-23.84125645 77.16619957 -19.22417964 75.55692575 -14.5 72.25 C-12.32826533 68.992398 -12.45319962 66.82760267 -13 63 C-18.33350218 56.57827204 -26.84006489 55.28196569 -34.59570312 53.24487305 C-47.07013839 49.94289315 -58.59171099 46.36454806 -66 35 C-67.22158981 32.32071479 -67.74640566 29.92478801 -68 27 C-68.06832031 26.27941406 -68.13664063 25.55882812 -68.20703125 24.81640625 C-68.59885473 16.44299342 -66.04494611 9.35021662 -60.7890625 2.8515625 C-45.68177816 -12.78348723 -16.68944366 -13.12411131 0 0 Z " fill="#BC1930" transform="translate(308,49)"/>
<path d="M0 0 C7.26 0 14.52 0 22 0 C22.33 11.55 22.66 23.1 23 35 C24.98 32.69 26.96 30.38 29 28 C36.17614971 23.60643895 44.15858266 22.94931602 52.3671875 24.42578125 C59.15055195 26.33873697 64.644831 30.14732469 68.3515625 36.2109375 C72.35415868 44.6480647 72.13978227 53.11002395 72.09765625 62.27734375 C72.0962413 63.4438295 72.09482635 64.61031525 72.09336853 65.81214905 C72.08779206 69.52062597 72.07524384 73.22904147 72.0625 76.9375 C72.05748196 79.4589835 72.05291959 81.98046795 72.04882812 84.50195312 C72.03783033 90.66798954 72.02111565 96.83399038 72 103 C68.35418313 103.02887512 64.70839537 103.04675585 61.0625 103.0625 C59.50112305 103.07506836 59.50112305 103.07506836 57.90820312 103.08789062 C56.42416992 103.09272461 56.42416992 103.09272461 54.91015625 103.09765625 C53.53549194 103.10551147 53.53549194 103.10551147 52.13305664 103.11352539 C50 103 50 103 49 102 C48.89300512 100.4614785 48.85378715 98.9181711 48.84228516 97.37597656 C48.83202301 96.39115295 48.82176086 95.40632935 48.81118774 94.3916626 C48.80388641 93.31882019 48.79658508 92.24597778 48.7890625 91.140625 C48.76098813 88.88801364 48.73232363 86.63540957 48.703125 84.3828125 C48.66187595 80.81673427 48.62500585 77.25079132 48.59863281 73.68457031 C48.57102767 70.25296552 48.5251459 66.82198831 48.4765625 63.390625 C48.47330963 62.32587952 48.47005676 61.26113403 48.46670532 60.16412354 C48.44307363 53.05154646 48.44307363 53.05154646 45 47 C40.52690208 44.01793472 36.24277005 44.52338454 31 45 C27.19912178 46.34614437 26.33219517 47.3906446 24.40698242 50.92211914 C22.37706176 55.88296775 22.52163255 60.89214391 22.48828125 66.18359375 C22.47033005 67.23909927 22.45237885 68.2946048 22.43388367 69.38209534 C22.37995641 72.73385698 22.34594083 76.08547762 22.3125 79.4375 C22.27931147 81.7181185 22.2448204 83.99871844 22.20898438 86.27929688 C22.12180205 91.85288292 22.06158122 97.42583778 22 103 C14.74 103 7.48 103 0 103 C0 69.01 0 35.02 0 0 Z " fill="#000000" transform="translate(332,42)"/>
<path d="M0 0 C7.15272351 6.77190721 8.78391222 14.62020907 9.36654663 24.19122314 C9.43285425 27.2778698 9.43898292 30.35804085 9.41796875 33.4453125 C9.41751053 34.55937469 9.41705231 35.67343689 9.4165802 36.82125854 C9.41358164 39.15233438 9.40576824 41.48340865 9.39331055 43.81445312 C9.37487241 47.3998107 9.37280244 50.98491211 9.37304688 54.5703125 C9.36813762 56.84114809 9.36231191 59.11198192 9.35546875 61.3828125 C9.35435593 62.45870636 9.3532431 63.53460022 9.35209656 64.64309692 C9.34571671 65.62857513 9.33933685 66.61405334 9.33276367 67.62939453 C9.32895187 68.50000519 9.32514008 69.37061584 9.32121277 70.26760864 C9.1875 72.25 9.1875 72.25 8.1875 73.25 C6.63794441 73.34899523 5.08396327 73.38079524 3.53125 73.3828125 C2.12166016 73.38474609 2.12166016 73.38474609 0.68359375 73.38671875 C-0.79947266 73.38091797 -0.79947266 73.38091797 -2.3125 73.375 C-3.30121094 73.37886719 -4.28992188 73.38273437 -5.30859375 73.38671875 C-6.24832031 73.38542969 -7.18804687 73.38414062 -8.15625 73.3828125 C-9.02443359 73.38168457 -9.89261719 73.38055664 -10.78710938 73.37939453 C-12.8125 73.25 -12.8125 73.25 -13.8125 72.25 C-13.91949488 70.7114785 -13.95871285 69.1681711 -13.97021484 67.62597656 C-13.98047699 66.64115295 -13.99073914 65.65632935 -14.00131226 64.6416626 C-14.00861359 63.56882019 -14.01591492 62.49597778 -14.0234375 61.390625 C-14.05151187 59.13801364 -14.08017637 56.88540957 -14.109375 54.6328125 C-14.15062405 51.06673427 -14.18749415 47.50079132 -14.21386719 43.93457031 C-14.24147233 40.50296552 -14.2873541 37.07198831 -14.3359375 33.640625 C-14.33919037 32.57587952 -14.34244324 31.51113403 -14.34579468 30.41412354 C-14.36942637 23.30154646 -14.36942637 23.30154646 -17.8125 17.25 C-22.2934324 14.26271173 -26.56279307 14.78814895 -31.8125 15.25 C-34.90485783 15.95425322 -34.90485783 15.95425322 -36.8125 18.25 C-39.84611872 24.74799365 -40.2771477 31.12151238 -40.32421875 38.19140625 C-40.34216995 39.19968979 -40.36012115 40.20797333 -40.37861633 41.24681091 C-40.43236129 44.43533267 -40.46649973 47.62370786 -40.5 50.8125 C-40.53320469 52.98765045 -40.56769723 55.16278164 -40.60351562 57.33789062 C-40.69046732 62.64194401 -40.75084277 67.94535244 -40.8125 73.25 C-48.0725 73.25 -55.3325 73.25 -62.8125 73.25 C-62.8125 47.51 -62.8125 21.77 -62.8125 -4.75 C-55.8825 -4.75 -48.9525 -4.75 -41.8125 -4.75 C-41.4825 -1.12 -41.1525 2.51 -40.8125 6.25 C-39.265625 4.3628125 -39.265625 4.3628125 -37.6875 2.4375 C-28.23915436 -8.34428152 -11.1206651 -8.8492101 0 0 Z " fill="#000000" transform="translate(177.8125,71.75)"/>
<path d="M0 0 C8.71277607 7.46121708 12.6730033 16.89728621 13.875 28.0625 C14.64716333 40.27671998 12.71582539 51.75563258 4.6875 61.25 C-2.41402218 68.83196342 -10.3590638 73.42527368 -20.85546875 74.140625 C-32.16965259 74.30599675 -41.88382032 72.16857925 -50.875 64.9375 C-60.57158536 54.31899821 -63.32899844 43.01817757 -62.875 28.9375 C-61.60825561 16.99566701 -57.52846177 7.08758213 -48.08984375 -0.59375 C-33.91641841 -9.99270578 -13.90000853 -9.80068398 0 0 Z M-33.875 13.9375 C-40.23597553 21.71202564 -40.79668859 30.22520653 -39.875 39.9375 C-38.66956778 44.99894552 -36.90043367 49.3884324 -33.0625 53 C-29.39151072 55.23138564 -27.17005227 55.9375 -22.875 55.9375 C-17.68136305 54.35300059 -14.70592299 52.58830206 -11.875 47.9375 C-7.97945843 39.76022094 -7.50296875 30.65846584 -10.125 22 C-11.87386223 17.48891612 -13.88219262 14.06855284 -18.1875 11.625 C-24.15481063 10.09847868 -28.71622692 10.49831795 -33.875 13.9375 Z " fill="#000000" transform="translate(478.875,73.0625)"/>
<path d="M0 0 C7.26 0 14.52 0 22 0 C22 25.74 22 51.48 22 78 C14.74 78 7.48 78 0 78 C0 52.26 0 26.52 0 0 Z " fill="#000000" transform="translate(202,67)"/>
<path d="M0 0 C3.06765423 1.72196807 5.40321354 3.80642707 7 7 C7.54399285 11.539219 7.62289461 14.9544269 5.25 18.9375 C1.88448377 22.02255654 0.15945644 22.89459487 -4.4375 23.3125 C-9.12104074 22.90166309 -11.51882258 21.53407662 -14.75 18.1875 C-16.38943245 15.31849321 -16.86999017 13.31525059 -17 10 C-15.8389707 6.19440396 -14.82849841 3.75539561 -11.875 1.0625 C-7.82646168 -0.43369894 -4.25691978 -0.82295461 0 0 Z " fill="#010101" transform="translate(218,36)"/>
<path d="M0 0 C5.39078978 3.19454209 7.6410349 7.40786509 10 13 C8.625 14.5 8.625 14.5 7 16 C5 16 5 16 3 15 C0 10.82142857 0 10.82142857 0 8 C-4.38586844 6.94739157 -6.24649649 6.54198806 -10.1875 8.9375 C-11.115625 9.618125 -12.04375 10.29875 -13 11 C-14.32 11 -15.64 11 -17 11 C-17.66 10.34 -18.32 9.68 -19 9 C-18.79200651 6.46349398 -18.31716022 5.31467594 -16.50390625 3.515625 C-11.10778253 -0.00216994 -6.41000698 -1.31211552 0 0 Z " fill="#AC1C2F" transform="translate(413,37)"/>
<path d="M0 0 C0.66 1.98 1.32 3.96 2 6 C0.87926138 6.83905565 -0.24674547 7.67107831 -1.375 8.5 C-2.00148438 8.9640625 -2.62796875 9.428125 -3.2734375 9.90625 C-5 11 -5 11 -7 11 C-7.46816337 16.85204211 -6.26851598 19.25538003 -3 24 C-3.0625 26.25 -3.0625 26.25 -4 28 C-4.99 28.66 -5.98 29.32 -7 30 C-7.98113243 28.70982586 -8.95984199 27.41780894 -9.9375 26.125 C-10.48277344 25.40570313 -11.02804687 24.68640625 -11.58984375 23.9453125 C-14.7547476 19.57932326 -14.70261763 15.24944206 -14 10 C-11.18126758 5.38752877 -5.8632817 0 0 0 Z " fill="#AC1B30" transform="translate(437,18)"/>
<path d="M0 0 C0.86625 1.7325 0.86625 1.7325 1.75 3.5 C3.42649258 6.57356973 3.76736309 6.91052427 7.25 8.25 C12.20781273 7.91947915 15.09680535 5.92993053 19 3 C19.99 4.32 20.98 5.64 22 7 C20.15777771 11.72702092 17.10294612 13.01326268 12.6640625 15.06640625 C8.37099895 16.57086694 6.36150537 16.45383512 2 15 C-2.61771919 11.25137536 -4.98485253 6.48567924 -7 1 C-3.375 -1.125 -3.375 -1.125 0 0 Z " fill="#AD1E32" transform="translate(411,3)"/>
<path d="M0 0 C3.95678605 1.31892868 4.90383918 3.11075509 6.97265625 6.61328125 C8.7608512 10.76760487 8.90963578 14.59233395 8 19 C4.91105351 24.0546397 1.18960496 26.45415606 -4 29 C-4.66 29 -5.32 29 -6 29 C-6.66 27.02 -7.32 25.04 -8 23 C-5.03 21.02 -2.06 19.04 1 17 C0.54707875 12.28961897 -0.08465561 9.67586901 -3 6 C-3 4.68 -3 3.36 -3 2 C-2.01 1.34 -1.02 0.68 0 0 Z " fill="#B11B31" transform="translate(396,8)"/>
<path d="M0 0 C6.93 0 13.86 0 21 0 C21 0.33 21 0.66 21 1 C14.4 1 7.8 1 1 1 C1.2475 2.60875 1.495 4.2175 1.75 5.875 C1.88921875 6.77992187 2.0284375 7.68484375 2.171875 8.6171875 C2.77983843 11.16214243 2.77983843 11.16214243 5.078125 12.3203125 C5.71234375 12.54460937 6.3465625 12.76890625 7 13 C6.67 13.99 6.34 14.98 6 16 C6.39397335 18.63804589 6.39397335 18.63804589 7 21 C2.74569922 17.47919935 1.50899199 14.20602237 0 9 C0 6.03 0 3.06 0 0 Z " fill="#A71B2F" transform="translate(238,112)"/>
<path d="M0 0 C3.58413979 3.58413979 3.159435 7.60546454 3.1875 12.5 C3.20167969 13.6240625 3.21585937 14.748125 3.23046875 15.90625 C3 19 3 19 1 23 C1 19.7 1 16.4 1 13 C0.34 13 -0.32 13 -1 13 C-1 12.34 -1 11.68 -1 11 C-1.66 11 -2.32 11 -3 11 C-2 9 -1 7 0 5 C-0.66 5 -1.32 5 -2 5 C-2 3.68 -2 2.36 -2 1 C-1.34 0.67 -0.68 0.34 0 0 Z " fill="#AB1C33" transform="translate(316,103)"/>
<path d="M0 0 C0.99 0.33 1.98 0.66 3 1 C3 2.65 3 4.3 3 6 C9.6 6 16.2 6 23 6 C23.33 5.01 23.66 4.02 24 3 C23.67 4.65 23.34 6.3 23 8 C16.07 8 9.14 8 2 8 C1.34 5.36 0.68 2.72 0 0 Z " fill="#941B2F" transform="translate(294,65)"/>
<path d="M0 0 C0.99 0.33 1.98 0.66 3 1 C2.625 3.4375 2.625 3.4375 2 6 C1.01 6.495 1.01 6.495 0 7 C-2.86280421 11.69499891 -3.53727822 15.63242739 -4 21 C-4.33 21 -4.66 21 -5 21 C-5.3754415 13.11572856 -4.4426634 6.6639951 0 0 Z " fill="#A61B2E" transform="translate(245,55)"/>
<path d="M0 0 C2.475 0.495 2.475 0.495 5 1 C4.34 1.66 3.68 2.32 3 3 C2.3574765 5.06874034 2.3574765 5.06874034 2 7 C0.4221875 6.505 0.4221875 6.505 -1.1875 6 C-7.05298373 4.49928164 -12.99092943 4.83511697 -19 5 C-18.67 4.34 -18.34 3.68 -18 3 C-16.95199219 3.01160156 -15.90398437 3.02320313 -14.82421875 3.03515625 C-13.44531428 3.04453655 -12.06640789 3.0536365 -10.6875 3.0625 C-9.99720703 3.07087891 -9.30691406 3.07925781 -8.59570312 3.08789062 C-5.4516975 3.10307906 -3.00579981 3.00193327 0 2 C0 1.34 0 0.68 0 0 Z " fill="#AB1C32" transform="translate(290,56)"/>
<path d="M0 0 C6.14961761 1.68089548 10.3575305 3.59560586 15 8 C11.00095031 8 9.19799578 6.27413033 6 4 C6 4.66 6 5.32 6 6 C4.35 6.66 2.7 7.32 1 8 C0.67 7.01 0.34 6.02 0 5 C0.66 5 1.32 5 2 5 C1.34 3.35 0.68 1.7 0 0 Z " fill="#AC2135" transform="translate(296,87)"/>
<path d="M0 0 C1.16796875 1.84765625 1.16796875 1.84765625 2.1875 4.0625 C2.53167969 4.79597656 2.87585938 5.52945312 3.23046875 6.28515625 C3.48441406 6.85105469 3.73835938 7.41695312 4 8 C2.68 7.34 1.36 6.68 0 6 C0 5.34 0 4.68 0 4 C-0.99 4.33 -1.98 4.66 -3 5 C-3 4.34 -3 3.68 -3 3 C-3.66 3 -4.32 3 -5 3 C-5.33 3.66 -5.66 4.32 -6 5 C-6.33 3.68 -6.66 2.36 -7 1 C-3.375 -1.125 -3.375 -1.125 0 0 Z " fill="#A62236" transform="translate(411,3)"/>
<path d="M0 0 C5.80165739 0.97458672 10.83982722 2.01253155 16 5 C16 5.33 16 5.66 16 6 C12.7 5.67 9.4 5.34 6 5 C6 4.34 6 3.68 6 3 C4.02 2.34 2.04 1.68 0 1 C0 0.67 0 0.34 0 0 Z " fill="#A92439" transform="translate(288,41)"/>
<path d="M0 0 C0.33 0.66 0.66 1.32 1 2 C1.66 2 2.32 2 3 2 C3 4.31 3 6.62 3 9 C1.68 9.33 0.36 9.66 -1 10 C-1 8.35 -1 6.7 -1 5 C-1.66 4.67 -2.32 4.34 -3 4 C-2.01 3.67 -1.02 3.34 0 3 C0 2.01 0 1.02 0 0 Z " fill="#BE182E" transform="translate(400,15)"/>
<path d="M0 0 C2.31 0.33 4.62 0.66 7 1 C7.33 2.32 7.66 3.64 8 5 C6.35 5.33 4.7 5.66 3 6 C0 2.25 0 2.25 0 0 Z " fill="#BC1931" transform="translate(409,39)"/>
<path d="M0 0 C0.33 0.66 0.66 1.32 1 2 C0.34 2 -0.32 2 -1 2 C-1.04125 2.61875 -1.0825 3.2375 -1.125 3.875 C-1.41375 4.57625 -1.7025 5.2775 -2 6 C-5.0625 7.25 -5.0625 7.25 -8 8 C-6.49776416 3.79373966 -3.71449966 2.26099979 0 0 Z " fill="#AC1E36" transform="translate(255,46)"/>
<path d="M0 0 C3.98175544 2.10148204 6.35039045 4.36905358 9 8 C8.01 8.495 8.01 8.495 7 9 C6.34 8.01 5.68 7.02 5 6 C2.94074861 5.27617533 2.94074861 5.27617533 1 5 C0.67 3.35 0.34 1.7 0 0 Z " fill="#A32335" transform="translate(304,47)"/>
<path d="M0 0 C1.52299523 2.93720508 2.80100302 5.9168649 4 9 C3.01 8.67 2.02 8.34 1 8 C0.67 8.66 0.34 9.32 0 10 C-0.144375 9.38125 -0.28875 8.7625 -0.4375 8.125 C-0.93152225 5.96741678 -0.93152225 5.96741678 -2 4 C-1.0625 1.875 -1.0625 1.875 0 0 Z " fill="#AD1D35" transform="translate(259,113)"/>
<path d="M0 0 C7.26153846 -0.61538462 7.26153846 -0.61538462 11 2.5 C11.66 3.325 12.32 4.15 13 5 C11.58208592 4.54554036 10.16571954 4.08625056 8.75 3.625 C7.96109375 3.36976562 7.1721875 3.11453125 6.359375 2.8515625 C4.13372042 2.04826333 2.09068328 1.10288338 0 0 Z " fill="#9D2134" transform="translate(280,103)"/>
<path d="M0 0 C2 3.75 2 3.75 2 6 C0.35 6.66 -1.3 7.32 -3 8 C-2.25 2.25 -2.25 2.25 0 0 Z " fill="#A81F31" transform="translate(426,24)"/>
<path d="M0 0 C0 0.99 0 1.98 0 3 C-0.66 3.66 -1.32 4.32 -2 5 C-4.625 4.625 -4.625 4.625 -7 4 C-6.67 3.01 -6.34 2.02 -6 1 C-3 0 -3 0 0 0 Z " fill="#BF1830" transform="translate(430,10)"/>
<path d="M0 0 C2.375 0.25 2.375 0.25 5 1 C6.3125 3.0625 6.3125 3.0625 7 5 C5.68 5.33 4.36 5.66 3 6 C3 5.34 3 4.68 3 4 C2.01 3.67 1.02 3.34 0 3 C0 2.01 0 1.02 0 0 Z " fill="#BB162D" transform="translate(406,6)"/>
<path d="M0 0 C0.99 0.33 1.98 0.66 3 1 C3 1.66 3 2.32 3 3 C1.68 3 0.36 3 -1 3 C-0.67 4.65 -0.34 6.3 0 8 C-0.99 7.34 -1.98 6.68 -3 6 C-3 4.68 -3 3.36 -3 2 C-2.01 1.34 -1.02 0.68 0 0 Z " fill="#A21E36" transform="translate(396,8)"/>
<path d="M0 0 C1.32 0 2.64 0 4 0 C4 1.65 4 3.3 4 5 C2.68 5 1.36 5 0 5 C0 3.35 0 1.7 0 0 Z " fill="#BC1831" transform="translate(417,46)"/>
<path d="M0 0 C0.66 0.33 1.32 0.66 2 1 C1.67 2.65 1.34 4.3 1 6 C1.99 6.33 2.98 6.66 4 7 C2.68 7 1.36 7 0 7 C-0.66 6.34 -1.32 5.68 -2 5 C-1.46428571 1.46428571 -1.46428571 1.46428571 0 0 Z " fill="#941E35" transform="translate(396,41)"/>
<path d="M0 0 C1.24546405 2.49092811 0.7767578 3.41080733 0 6 C0.99 6.33 1.98 6.66 3 7 C1.68 7.33 0.36 7.66 -1 8 C-1.66 6.02 -2.32 4.04 -3 2 C-2.01 1.34 -1.02 0.68 0 0 Z " fill="#942033" transform="translate(391,29)"/>
<path d="M0 0 C-0.33 1.32 -0.66 2.64 -1 4 C-3.31 4 -5.62 4 -8 4 C-5.29881977 1.17603885 -4.05589853 0 0 0 Z " fill="#A71F33" transform="translate(406,37)"/>
<path d="M0 0 C4.95 1.98 4.95 1.98 10 4 C10 4.33 10 4.66 10 5 C7.03 4.67 4.06 4.34 1 4 C0.67 2.68 0.34 1.36 0 0 Z " fill="#A52438" transform="translate(264,122)"/>
<path d="M0 0 C1.32 0 2.64 0 4 0 C4.33 1.32 4.66 2.64 5 4 C3.35 4.33 1.7 4.66 0 5 C0 3.35 0 1.7 0 0 Z " fill="#AE1F31" transform="translate(398,13)"/>
</svg>
