<?xml version="1.0" encoding="UTF-8"?>
<svg version="1.1" xmlns="http://www.w3.org/2000/svg" width="500" height="500">
<path d="M0 0 C0.38220703 0.73935791 0.76441406 1.47871582 1.15820312 2.24047852 C2.61408016 5.05565591 4.07095377 7.87031527 5.52825928 10.68475342 C6.49652277 12.55578077 7.46336784 14.42753661 8.43017578 16.29931641 C11.14313918 21.54467133 13.85597394 26.78696384 16.7109375 31.95703125 C17.08541016 32.63757568 17.45988281 33.31812012 17.84570312 34.01928711 C18.80249304 35.74427766 19.77183683 37.46228862 20.7421875 39.1796875 C22.05384246 42.1207275 22.10688632 43.84054671 22 47 C1.14116119 58.51389443 1.14116119 58.51389443 -8.0625 62.9375 C-34.97849726 76.09109773 -66.20023422 95.63813679 -77 125 C-83.18699991 145.88112469 -75.28492947 167.94391331 -65.30932617 186.35107422 C-56.46475407 202.05322996 -45.12167151 216.36756577 -33.34692383 229.95019531 C-29.0915868 234.86068055 -25.00763957 239.88436596 -21 245 C-23.73374815 248.6365208 -26.5545659 251.43945421 -30.125 254.25 C-33.85304697 257.23639306 -37.47367524 260.277863 -41 263.5 C-44.54652649 266.71845865 -48.13917393 269.86410135 -51.8125 272.9375 C-52.68519531 273.66839844 -53.55789063 274.39929688 -54.45703125 275.15234375 C-56.92130219 276.94282018 -59.13080825 278.01612994 -62 279 C-62.81791016 277.98292969 -62.81791016 277.98292969 -63.65234375 276.9453125 C-67.40882657 272.30910636 -71.187349 267.74668382 -75.25 263.375 C-81.66893448 256.31753277 -87.30755745 248.64454425 -93 241 C-93.46083984 240.38576172 -93.92167969 239.77152344 -94.39648438 239.13867188 C-119.1632314 206.00528086 -137.20042132 165.75890309 -131.3515625 123.578125 C-127.69250716 101.85326622 -117.56924076 84.99427419 -104 68 C-103.33339355 67.14849365 -103.33339355 67.14849365 -102.65332031 66.27978516 C-101.48170196 64.81504763 -100.2453477 63.40258857 -99 62 C-98.34 62 -97.68 62 -97 62 C-97 61.34 -97 60.68 -97 60 C-96.34 60 -95.68 60 -95 60 C-95 59.34 -95 58.68 -95 58 C-92.57547301 55.41735168 -89.73106354 53.24887279 -87 51 C-86.02804687 50.19175781 -85.05609375 49.38351563 -84.0546875 48.55078125 C-63.53245752 31.79469821 -40.2247352 19.57527296 -16.79443359 7.47509766 C-12.92124692 5.43055861 -9.11098262 3.27649606 -5.3059082 1.1081543 C-3 0 -3 0 0 0 Z " fill="#BD1931" transform="translate(478,163)"/>
<path d="M0 0 C0.39155273 0.76852295 0.78310547 1.5370459 1.18652344 2.32885742 C20.29340083 40.42913054 20.29340083 40.42913054 45 75 C45.71929687 75.85335937 46.43859375 76.70671875 47.1796875 77.5859375 C57.62971292 89.62697025 72.52670561 100.7240994 89 102 C89.75925781 102.06832031 90.51851562 102.13664062 91.30078125 102.20703125 C128.24497229 103.83958961 161.81923036 74.39052417 188 52 C189.86504946 50.4049577 191.73926864 48.82053707 193.625 47.25 C194.40101563 46.59515625 195.17703125 45.9403125 195.9765625 45.265625 C196.64429688 44.84796875 197.31203125 44.4303125 198 44 C201.70016395 45.23338798 202.54703034 46.63820444 204.9375 49.6875 C208.54081688 54.20482896 212.22186858 58.62800781 216 63 C218.00268378 65.33103968 220.00215039 67.66481627 222 70 C222.46067871 70.53786133 222.92135742 71.07572266 223.39599609 71.62988281 C224.66765152 73.1216235 225.92788711 74.62307684 227.1875 76.125 C227.90292969 76.97320312 228.61835938 77.82140625 229.35546875 78.6953125 C230.92301071 80.89210527 231.59278114 82.36219423 232 85 C231.35675781 85.52207031 230.71351563 86.04414062 230.05078125 86.58203125 C224.99414031 90.70092138 219.99764522 94.86108567 215.0625 99.125 C195.81594314 115.53050993 174.97251693 130.33054214 152 141 C150.63101563 141.68449219 150.63101563 141.68449219 149.234375 142.3828125 C122.07259054 155.6304313 88.74578742 159.86798503 59.79296875 150.10131836 C25.82545031 137.64404921 -0.27732413 109.67642855 -17.94970703 78.82958984 C-19.16844475 76.70657254 -20.41104459 74.59818398 -21.65234375 72.48828125 C-28.29212137 61.11198836 -34.45997353 49.52275795 -40.45556641 37.79833984 C-41.30127197 36.14632568 -41.30127197 36.14632568 -42.1640625 34.4609375 C-42.91357178 32.98826416 -42.91357178 32.98826416 -43.67822266 31.48583984 C-45.02183865 28.85984361 -45.02183865 28.85984361 -47 26 C-47 25.01 -47 24.02 -47 23 C-46.34217529 22.65855957 -45.68435059 22.31711914 -45.0065918 21.96533203 C-43.02849813 20.9383541 -41.05056723 19.91106265 -39.07275391 18.88354492 C-36.80585051 17.70595188 -34.53859462 16.52903715 -32.27099609 15.3527832 C-26.90421439 12.56547022 -21.54486784 9.76722861 -16.21484375 6.91015625 C-15.34964111 6.44786621 -14.48443848 5.98557617 -13.59301758 5.50927734 C-11.97678998 4.64368666 -10.36322635 3.7730989 -8.75268555 2.89697266 C-3.33283654 0 -3.33283654 0 0 0 Z " fill="#BD1930" transform="translate(210,0)"/>
<path d="M0 0 C2.6793409 1.59207213 4.1745891 3.59149732 6.07421875 6.05859375 C8.939034 9.69881281 11.83135482 13.19185689 15.01171875 16.55859375 C46.63664077 51.34046945 73.34464436 97.47382898 71.05517578 145.72509766 C68.95300785 175.62462817 54.1492339 198.9332039 33.88671875 220.12109375 C32.79810547 221.28125 32.79810547 221.28125 31.6875 222.46484375 C29.88671875 224.12109375 29.88671875 224.12109375 27.88671875 224.12109375 C27.88671875 224.78109375 27.88671875 225.44109375 27.88671875 226.12109375 C26.56420898 227.3828125 26.56420898 227.3828125 24.6953125 228.80859375 C24.00566406 229.33735107 23.31601563 229.8661084 22.60546875 230.41088867 C21.47625 231.25744019 21.47625 231.25744019 20.32421875 232.12109375 C19.55207031 232.70415283 18.77992187 233.28721191 17.984375 233.88793945 C5.49549002 243.2379684 -7.58601609 251.37025198 -21.11328125 259.12109375 C-22.12890137 259.70721436 -22.12890137 259.70721436 -23.16503906 260.30517578 C-32.97032577 265.95732823 -42.95167521 271.14168148 -53.11328125 276.12109375 C-54.21414062 276.69085938 -55.315 277.260625 -56.44921875 277.84765625 C-59.11328125 279.12109375 -59.11328125 279.12109375 -61.11328125 279.12109375 C-61.63237061 278.10797119 -62.15145996 277.09484863 -62.6862793 276.05102539 C-64.6323349 272.25384997 -66.58040535 268.45771116 -68.52905273 264.66186523 C-69.36846082 263.02607497 -70.20733905 261.3900127 -71.0456543 259.75366211 C-72.25817272 257.38712079 -73.47237744 255.02145516 -74.6875 252.65625 C-75.07767303 251.89583405 -75.46784607 251.13541809 -75.86984253 250.35195923 C-78.24375309 245.74537516 -80.69252467 241.20068816 -83.34692383 236.74780273 C-84.11328125 235.12109375 -84.11328125 235.12109375 -84.11328125 232.12109375 C-82.97620728 231.54161987 -82.97620728 231.54161987 -81.81616211 230.95043945 C-23.13183904 203.79806756 -23.13183904 203.79806756 15.19921875 154.87109375 C21.62777091 134.79882119 15.27377631 114.40785054 6.01660156 96.27270508 C-2.57910305 80.00644093 -13.84898001 65.62663368 -25.77001953 51.69824219 C-36.11753626 39.54903134 -36.11753626 39.54903134 -40.11328125 33.12109375 C-35.47399979 28.19680523 -30.48838519 23.89647096 -25.22265625 19.65625 C-21.09361727 16.31579856 -17.0822318 12.83828081 -13.06030273 9.37036133 C-11.9526652 8.41580017 -10.84198515 7.464756 -9.72802734 6.51757812 C-8.63402492 5.57144963 -7.55903294 4.6029665 -6.50244141 3.61523438 C-2.69686412 0.1545338 -2.69686412 0.1545338 0 0 Z " fill="#BD1930" transform="translate(84.11328125,58.87890625)"/>
<path d="M0 0 C1.14831299 0.00491455 2.29662598 0.0098291 3.47973633 0.01489258 C12.12351316 0.13390243 19.97181535 0.91007283 28.3125 3.3125 C30.14748047 3.82296875 30.14748047 3.82296875 32.01953125 4.34375 C51.43456254 10.26223534 66.76320714 21.43944188 81.3125 35.3125 C82.02148438 35.96863281 82.73046875 36.62476563 83.4609375 37.30078125 C102.40740927 55.35792884 115.37368023 79.45549951 127.64794922 102.23925781 C129.4077225 105.48830828 131.18824087 108.72536079 132.97265625 111.9609375 C133.87141479 113.59808716 133.87141479 113.59808716 134.78833008 115.26831055 C135.95424118 117.39204321 137.12452475 119.51338237 138.29956055 121.63208008 C138.82461182 122.59267334 139.34966309 123.5532666 139.890625 124.54296875 C140.59300293 125.81756958 140.59300293 125.81756958 141.30957031 127.11791992 C142.3125 129.3125 142.3125 129.3125 142.3125 132.3125 C141.35996338 132.80129639 140.40742676 133.29009277 139.42602539 133.79370117 C135.85249655 135.62796964 132.27998696 137.46421584 128.70776367 139.30102539 C127.1689735 140.09192006 125.62991668 140.88229615 124.09057617 141.67211914 C121.86304522 142.81516569 119.63648235 143.96007755 117.41015625 145.10546875 C116.69131256 145.47413055 115.97246887 145.84279236 115.23184204 146.22262573 C110.78690614 148.51338748 106.42765334 150.9017947 102.16967773 153.52856445 C99.80546867 154.52652361 97.8515889 154.44901604 95.3125 154.3125 C93.51820937 151.04309991 91.72730735 147.77185646 89.9375 144.5 C89.11765625 143.00279419 89.11765625 143.00279419 88.28125 141.4753418 C85.28856419 135.99324597 82.35406993 130.48910851 79.5012207 124.93310547 C65.557772 97.85950431 47.07955975 66.48194202 17.23828125 55.14453125 C-4.81682364 48.87251878 -27.01610601 57.21574236 -46.20874023 67.87207031 C-53.60375575 72.10586321 -60.46038589 76.89326227 -67.17285156 82.13134766 C-68.47631653 83.14781502 -69.7953418 84.1442719 -71.1171875 85.13671875 C-76.38466086 89.12108962 -81.36712939 93.4286294 -86.36401367 97.74291992 C-91.72458905 102.36742937 -97.1809853 106.8623371 -102.6875 111.3125 C-107.9384789 107.17875065 -111.99368599 102.67058537 -116.15625 97.453125 C-118.98018485 93.9186809 -121.92303995 90.4901683 -124.875 87.0625 C-125.36186279 86.49660156 -125.84872559 85.93070312 -126.3503418 85.34765625 C-126.82640869 84.79464844 -127.30247559 84.24164063 -127.79296875 83.671875 C-128.26009277 83.12337891 -128.7272168 82.57488281 -129.20849609 82.00976562 C-130.25446998 80.80943376 -131.32817883 79.63300857 -132.42041016 78.47460938 C-132.97905762 77.86939453 -133.53770508 77.26417969 -134.11328125 76.640625 C-134.62930908 76.09825195 -135.14533691 75.55587891 -135.67700195 74.99707031 C-136.6875 73.3125 -136.6875 73.3125 -136.47412109 71.22558594 C-135.30686707 68.38678937 -133.41784506 67.17618203 -131 65.3125 C-129.99839844 64.52359375 -128.99679688 63.7346875 -127.96484375 62.921875 C-127.42843262 62.49970703 -126.89202148 62.07753906 -126.33935547 61.64257812 C-124.09908769 59.83870895 -121.9387126 57.95066792 -119.77416992 56.05712891 C-100.89767537 39.57418787 -80.34879926 24.59812361 -57.48291016 14.13427734 C-55.73374398 13.33366634 -53.99747476 12.50506491 -52.26171875 11.67578125 C-42.72735458 7.3099882 -32.88387194 4.65630945 -22.6875 2.3125 C-21.90979248 2.12341064 -21.13208496 1.93432129 -20.33081055 1.73950195 C-13.53819312 0.20643408 -6.94819815 -0.03519754 0 0 Z " fill="#BD1931" transform="translate(195.6875,345.6875)"/>
<path d="M0 0 C0.66 0.33 1.32 0.66 2 1 C1.25 2.9375 1.25 2.9375 0 5 C-0.639375 5.144375 -1.27875 5.28875 -1.9375 5.4375 C-4.28609288 5.81758089 -4.28609288 5.81758089 -5.4375 8.5 C-7 11 -7 11 -9.4375 11.8125 C-13.17604527 12.08605209 -16.40441171 12.02731094 -20 11 C-16.7155241 9.13287101 -13.42136129 7.28355226 -10.125 5.4375 C-8.71927734 4.63795898 -8.71927734 4.63795898 -7.28515625 3.82226562 C-6.38925781 3.32275391 -5.49335938 2.82324219 -4.5703125 2.30859375 C-3.74289551 1.84251709 -2.91547852 1.37644043 -2.06298828 0.89624023 C-1.38220215 0.60048096 -0.70141602 0.30472168 0 0 Z " fill="#AC1C31" transform="translate(30,275)"/>
<path d="M0 0 C1.64826111 2.96687001 2.44271087 5.65626525 3 9 C3.99 9 4.98 9 6 9 C7.6875 11 7.6875 11 9 13 C8.34 13 7.68 13 7 13 C8.29299694 15.88437779 9.65941363 17.87219421 12 20 C11.34 20.66 10.68 21.32 10 22 C-0.55808656 8.3667426 -0.55808656 8.3667426 -5 2 C-3.35 2 -1.7 2 0 2 C0 1.34 0 0.68 0 0 Z " fill="#AE1B33" transform="translate(68,113)"/>
<path d="M0 0 C1.65 0 3.3 0 5 0 C1.41515516 3.00621497 -2.25255049 5.43002885 -6.3125 7.75 C-7.38113281 8.36359375 -8.44976562 8.9771875 -9.55078125 9.609375 C-10.35902344 10.06828125 -11.16726563 10.5271875 -12 11 C-12 10.01 -12 9.02 -12 8 C-11.01 7.34 -10.02 6.68 -9 6 C-9.33 5.01 -9.66 4.02 -10 3 C-9.67 2.34 -9.34 1.68 -9 1 C-8.01 1.33 -7.02 1.66 -6 2 C-4.00038436 2.03920815 -1.99950636 2.04443347 0 2 C0 1.34 0 0.68 0 0 Z " fill="#AC1E33" transform="translate(451,233)"/>
<path d="M0 0 C0.33 0.66 0.66 1.32 1 2 C0.34 2 -0.32 2 -1 2 C-1 2.99 -1 3.98 -1 5 C-1.66 5 -2.32 5 -3 5 C-2.690625 6.6396875 -2.690625 6.6396875 -2.375 8.3125 C-2 12 -2 12 -4 15 C-4.67408308 13.73308493 -5.33900497 12.46129251 -6 11.1875 C-6.37125 10.47980469 -6.7425 9.77210938 -7.125 9.04296875 C-8 7 -8 7 -8 4 C-5.36 2.68 -2.72 1.36 0 0 Z " fill="#AE1B33" transform="translate(8,287)"/>
<path d="M0 0 C1.32 0.33 2.64 0.66 4 1 C2.10673459 2.12931621 0.2102736 3.25327616 -1.6875 4.375 C-2.74324219 5.00148438 -3.79898438 5.62796875 -4.88671875 6.2734375 C-7.557191 7.75442713 -10.13932051 8.94913815 -13 10 C-12.51789077 4.45574388 -12.51789077 4.45574388 -10.4375 2.625 C-6.89649716 1.71705055 -3.65233264 1.87825558 0 2 C0 1.34 0 0.68 0 0 Z " fill="#AC1F35" transform="translate(55,319)"/>
<path d="M0 0 C0.66 0.33 1.32 0.66 2 1 C0.75796305 2.46512126 -0.49397056 3.92185645 -1.75 5.375 C-2.44609375 6.18710938 -3.1421875 6.99921875 -3.859375 7.8359375 C-5.88927191 9.88805955 -7.41074989 10.83483745 -10 12 C-11.37086915 13.29470975 -12.71340837 14.62150897 -14 16 C-14.99 15.67 -15.98 15.34 -17 15 C-5.47835991 4.44191344 -5.47835991 4.44191344 0 0 Z " fill="#A91C35" transform="translate(70,69)"/>
<path d="M0 0 C0.66 0.33 1.32 0.66 2 1 C-1.515625 5.6875 -1.515625 5.6875 -3 7 C-4.32 7 -5.64 7 -7 7 C-7.33 7.66 -7.66 8.32 -8 9 C-9.65 8.67 -11.3 8.34 -13 8 C-11.48339626 4.96679252 -9.05369111 4.30987391 -6.0625 2.8125 C-4.98097656 2.26207031 -3.89945312 1.71164063 -2.78515625 1.14453125 C-1.86605469 0.76683594 -0.94695312 0.38914063 0 0 Z " fill="#AC1F33" transform="translate(456,173)"/>
<path d="M0 0 C3.40424844 1.13474948 4.21653709 1.96811304 6 5 C5.67 5.99 5.34 6.98 5 8 C4.01 8.33 3.02 8.66 2 9 C1.67 7.35 1.34 5.7 1 4 C0.01 4.66 -0.98 5.32 -2 6 C-4.1875 5.625 -4.1875 5.625 -6 5 C-1.60546875 0.99609375 -1.60546875 0.99609375 0 0 Z " fill="#B61A34" transform="translate(408,44)"/>
<path d="M0 0 C0.66 0.33 1.32 0.66 2 1 C0.38664615 4.22670771 -2.8672203 5.45760299 -6 7 C-7.32911682 7.34976758 -8.66082739 7.69096017 -10 8 C-10.33 8.66 -10.66 9.32 -11 10 C-12.32 9.34 -13.64 8.68 -15 8 C-12.54665445 6.63603538 -10.08808766 5.28365831 -7.625 3.9375 C-6.92632812 3.54755859 -6.22765625 3.15761719 -5.5078125 2.75585938 C-3.70389816 1.77584822 -1.85416518 0.88124929 0 0 Z " fill="#B01C35" transform="translate(473,164)"/>
<path d="M0 0 C4.455 0.99 4.455 0.99 9 2 C8.67 2.66 8.34 3.32 8 4 C9.32 4.66 10.64 5.32 12 6 C9.525 7.485 9.525 7.485 7 9 C5.83037314 7.69013727 4.66437056 6.3770374 3.5 5.0625 C2.8503125 4.33160156 2.200625 3.60070312 1.53125 2.84765625 C0 1 0 1 0 0 Z " fill="#AF1C31" transform="translate(85,448)"/>
<path d="M0 0 C0.33 1.32 0.66 2.64 1 4 C0.34 4 -0.32 4 -1 4 C-1 4.7425 -1 5.485 -1 6.25 C-1 13 -1 13 -2 16 C-3.32 15.34 -4.64 14.68 -6 14 C-4.45941767 8.98491285 -2.97068161 4.3852919 0 0 Z " fill="#AA1D32" transform="translate(359,252)"/>
<path d="M0 0 C0.66 0 1.32 0 2 0 C2.33 0.66 2.66 1.32 3 2 C4.6396875 1.690625 4.6396875 1.690625 6.3125 1.375 C10 1 10 1 13 3 C11.71086513 3.67154933 10.41859796 4.33708859 9.125 5 C8.40570313 5.37125 7.68640625 5.7425 6.9453125 6.125 C5 7 5 7 3 7 C2.01 4.69 1.02 2.38 0 0 Z " fill="#B01C32" transform="translate(20,331)"/>
<path d="M0 0 C1.32 0.66 2.64 1.32 4 2 C3.40832031 2.45890625 2.81664062 2.9178125 2.20703125 3.390625 C-1.88379822 6.56719079 -5.96818271 9.74853444 -10 13 C-9.01 10.03 -8.02 7.06 -7 4 C-5.68 4.33 -4.36 4.66 -3 5 C-3 4.34 -3 3.68 -3 3 C-2.01 3 -1.02 3 0 3 C0 2.01 0 1.02 0 0 Z " fill="#A81D35" transform="translate(428,248)"/>
<path d="M0 0 C7 8.20689655 7 8.20689655 7 13 C6.01 13 5.02 13 4 13 C3.34 10.69 2.68 8.38 2 6 C0.68 6 -0.64 6 -2 6 C-2.33 6.66 -2.66 7.32 -3 8 C-3.33 7.01 -3.66 6.02 -4 5 C-2.68 4.34 -1.36 3.68 0 3 C0 2.01 0 1.02 0 0 Z " fill="#B71A31" transform="translate(213,8)"/>
<path d="M0 0 C0 0.66 0 1.32 0 2 C-1.97946592 3.36363208 -3.9819245 4.69418644 -6 6 C-7.79394446 7.62351109 -7.79394446 7.62351109 -9 9 C-11.13093906 7.93453047 -12.36587557 6.70840281 -14 5 C-12.04350603 4.16235732 -10.08474444 3.33000941 -8.125 2.5 C-6.48917969 1.80390625 -6.48917969 1.80390625 -4.8203125 1.09375 C-2 0 -2 0 0 0 Z " fill="#AD1A31" transform="translate(341,93)"/>
<path d="M0 0 C0.66 1.98 1.32 3.96 2 6 C0.58297487 5.85769192 -0.8336096 5.71099254 -2.25 5.5625 C-3.43335938 5.44068359 -3.43335938 5.44068359 -4.640625 5.31640625 C-6.82364639 5.02365007 -8.8773182 4.57935581 -11 4 C-9.73308493 3.32591692 -8.46129251 2.66099503 -7.1875 2 C-6.47980469 1.62875 -5.77210938 1.2575 -5.04296875 0.875 C-3 0 -3 0 0 0 Z " fill="#AB1A32" transform="translate(210,0)"/>
<path d="M0 0 C1.98 0 3.96 0 6 0 C1.50898372 4.04191465 -3.58984989 6.43674441 -9 9 C-9 8.34 -9 7.68 -9 7 C-8.34 7 -7.68 7 -7 7 C-7 6.34 -7 5.68 -7 5 C-6.030625 4.54625 -5.06125 4.0925 -4.0625 3.625 C-0.92920418 2.34213779 -0.92920418 2.34213779 0 0 Z " fill="#AA1E37" transform="translate(152,408)"/>
<path d="M0 0 C3.83711716 3.05225229 7.20439184 5.91411116 10 10 C10 10.99 10 11.98 10 13 C8 12 8 12 6.0625 9.5 C4.17703957 6.76426486 4.17703957 6.76426486 1 6 C0.67 4.02 0.34 2.04 0 0 Z M2 8 C4 9 4 9 4 9 Z " fill="#A71B33" transform="translate(432,72)"/>
<path d="M0 0 C0.66 0.33 1.32 0.66 2 1 C1.59007812 1.47050781 1.18015625 1.94101562 0.7578125 2.42578125 C-0.05042969 3.35970703 -0.05042969 3.35970703 -0.875 4.3125 C-1.40867187 4.92738281 -1.94234375 5.54226562 -2.4921875 6.17578125 C-4.1640447 8.13498212 -4.1640447 8.13498212 -6 11 C-8.625 11.1875 -8.625 11.1875 -11 11 C-7.33333333 7.33333333 -3.66666667 3.66666667 0 0 Z " fill="#A61A32" transform="translate(400,50)"/>
<path d="M0 0 C2.91517292 1.07401108 4.77810176 1.77810176 7 4 C7.33 4.99 7.66 5.98 8 7 C9.32 6.67 10.64 6.34 12 6 C11.67 7.98 11.34 9.96 11 12 C6.30435607 8.68542782 3.27530896 4.63720719 0 0 Z " fill="#A41E33" transform="translate(64,424)"/>
<path d="M0 0 C0.763125 0.350625 1.52625 0.70125 2.3125 1.0625 C5.04759379 2.32360884 5.04759379 2.32360884 8 1 C8 2.32 8 3.64 8 5 C8.99 5 9.98 5 11 5 C11.33 6.32 11.66 7.64 12 9 C7.09198451 7.51272258 3.59508707 4.55364515 0 1 C0 0.67 0 0.34 0 0 Z " fill="#A81F34" transform="translate(234,128)"/>
<path d="M0 0 C1.65 0 3.3 0 5 0 C5.99 2.31 6.98 4.62 8 7 C7.01 7.66 6.02 8.32 5 9 C3.35 6.03 1.7 3.06 0 0 Z " fill="#B01D34" transform="translate(79,136)"/>
<path d="M0 0 C0.66 0.33 1.32 0.66 2 1 C0.8758824 2.29243468 -0.24932592 3.58392075 -1.375 4.875 C-2.00148438 5.59429687 -2.62796875 6.31359375 -3.2734375 7.0546875 C-4.47426834 8.4076598 -5.7208345 9.7208345 -7 11 C-7.99 10.34 -8.98 9.68 -10 9 C-6.7 6.03 -3.4 3.06 0 0 Z " fill="#A82032" transform="translate(86,393)"/>
<path d="M0 0 C-0.1875 1.875 -0.1875 1.875 -1 4 C-3.5625 5.25 -3.5625 5.25 -6 6 C-6 5.34 -6 4.68 -6 4 C-7.98 4.33 -9.96 4.66 -12 5 C-9.9330412 2.9330412 -8.69369158 2.35542451 -6 1.375 C-5.29875 1.11460937 -4.5975 0.85421875 -3.875 0.5859375 C-2 0 -2 0 0 0 Z " fill="#AB2036" transform="translate(156,353)"/>
<path d="M0 0 C9.59453303 2.89066059 9.59453303 2.89066059 13 6 C11.35 6 9.7 6 8 6 C8 5.34 8 4.68 8 4 C5.69 4 3.38 4 1 4 C0.67 2.68 0.34 1.36 0 0 Z " fill="#A51D33" transform="translate(234,353)"/>
<path d="M0 0 C2.00720923 0.28674418 4.0085944 0.61866701 6 1 C3.88613536 3.11386464 2.20732397 3.97008322 -0.5 5.1875 C-1.2940625 5.55230469 -2.088125 5.91710937 -2.90625 6.29296875 C-3.5971875 6.52628906 -4.288125 6.75960937 -5 7 C-5.66 6.67 -6.32 6.34 -7 6 C-5.62209707 3.24419414 -3.62850007 2.51138754 -1 1 C-0.67 0.67 -0.34 0.34 0 0 Z " fill="#AB1F38" transform="translate(361,137)"/>
<path d="M0 0 C0 2 0 2 -1.6875 4.125 C-4.46642786 6.37818475 -5.52370134 6.2607224 -9 6 C-10.34332728 6.29044914 -11.68225804 6.60955794 -13 7 C-10.84545751 4.64283596 -8.80280126 3.21033856 -5.9375 1.8125 C-5.24527344 1.46832031 -4.55304688 1.12414062 -3.83984375 0.76953125 C-2 0 -2 0 0 0 Z " fill="#A61B32" transform="translate(355,86)"/>
<path d="M0 0 C2.97 0 5.94 0 9 0 C6.05304526 2.94695474 3.7949346 4.38513421 0 6 C-0.66 5.67 -1.32 5.34 -2 5 C-1.34 3.35 -0.68 1.7 0 0 Z " fill="#AD1F3A" transform="translate(317,483)"/>
<path d="M0 0 C1.98 0 3.96 0 6 0 C2.87378374 3.39417765 0.43458973 5.6062718 -4 7 C-4.33 6.01 -4.66 5.02 -5 4 C-3.35 4 -1.7 4 0 4 C0 2.68 0 1.36 0 0 Z " fill="#A71F34" transform="translate(420,435)"/>
<path d="M0 0 C2.64 0 5.28 0 8 0 C4.80331012 2.6486859 1.60513403 4.93992341 -2 7 C-1.34 4.69 -0.68 2.38 0 0 Z " fill="#A71D34" transform="translate(83,300)"/>
<path d="M0 0 C-2.68841859 2.25245881 -4.64641875 3.88213958 -8 5 C-8 4.34 -8 3.68 -8 3 C-8.66 3 -9.32 3 -10 3 C-7.7846105 -1.43077901 -4.3377361 -1.20492669 0 0 Z " fill="#B01B35" transform="translate(140,419)"/>
<path d="M0 0 C1.17539996 0.92652701 2.34010577 1.86663387 3.5 2.8125 C4.1496875 3.33457031 4.799375 3.85664062 5.46875 4.39453125 C7 6 7 6 7 9 C6.01 8.34 5.02 7.68 4 7 C3.34 7 2.68 7 2 7 C2 6.34 2 5.68 2 5 C1.34 5 0.68 5 0 5 C0 3.35 0 1.7 0 0 Z " fill="#A71B31" transform="translate(258,80)"/>
<path d="M0 0 C3.99926986 2.97088618 6.92118304 6.12948725 10 10 C9.67 10.66 9.34 11.32 9 12 C4.57852204 10.08402622 2.99456814 7.2550787 1 3 C0.67 2.01 0.34 1.02 0 0 Z " fill="#A51E34" transform="translate(422,60)"/>
<path d="M0 0 C0 0.99 0 1.98 0 3 C-7.28571429 7.57142857 -7.28571429 7.57142857 -12 7 C-8.35140239 3.95950199 -4.2555467 2.03481238 0 0 Z " fill="#AB1D33" transform="translate(188,10)"/>
<path d="M0 0 C2.475 0.495 2.475 0.495 5 1 C5 2.65 5 4.3 5 6 C5.99 6 6.98 6 8 6 C7.67 7.32 7.34 8.64 7 10 C5.82739389 8.71372289 4.6620717 7.42080217 3.5 6.125 C2.8503125 5.40570313 2.200625 4.68640625 1.53125 3.9453125 C0 2 0 2 0 0 Z " fill="#A91B32" transform="translate(390,409)"/>
<path d="M0 0 C0.66 0 1.32 0 2 0 C2 0.66 2 1.32 2 2 C2.66 2 3.32 2 4 2 C4 2.66 4 3.32 4 4 C5.65 4 7.3 4 9 4 C8.34 5.65 7.68 7.3 7 9 C4.03595495 6.19195732 1.55500981 3.81684226 0 0 Z " fill="#AB1D35" transform="translate(383,400)"/>
<path d="M0 0 C1.98 1.65 3.96 3.3 6 5 C5.67 5.66 5.34 6.32 5 7 C3.02 6.34 1.04 5.68 -1 5 C-0.67 3.35 -0.34 1.7 0 0 Z " fill="#AB1C31" transform="translate(285,391)"/>
<path d="M0 0 C0 1.65 0 3.3 0 5 C-1.97746603 5.73080266 -3.98072489 6.39421747 -6 7 C-6.66 6.67 -7.32 6.34 -8 6 C-6.85675161 4.9970458 -5.71032809 3.99770973 -4.5625 3 C-3.92441406 2.443125 -3.28632812 1.88625 -2.62890625 1.3125 C-1 0 -1 0 0 0 Z " fill="#AC1C32" transform="translate(76,246)"/>
<path d="M0 0 C0.99 0.33 1.98 0.66 3 1 C1.02 3.31 -0.96 5.62 -3 8 C-3.66 7.01 -4.32 6.02 -5 5 C-3.33333333 3.33333333 -1.66666667 1.66666667 0 0 Z " fill="#AB1E35" transform="translate(119,273)"/>
<path d="M0 0 C0.66 0 1.32 0 2 0 C2.70226141 1.24176695 3.38629109 2.49385599 4.0625 3.75 C4.44535156 4.44609375 4.82820313 5.1421875 5.22265625 5.859375 C6.1312406 8.36140628 5.88336837 9.5332355 5 12 C4.16180842 10.37750059 3.3295884 8.75191503 2.5 7.125 C2.0359375 6.22007812 1.571875 5.31515625 1.09375 4.3828125 C0 2 0 2 0 0 Z " fill="#A81B37" transform="translate(275,468)"/>
<path d="M0 0 C2.74277578 3.19990508 4.6302836 6.00499382 6 10 C3.5625 8.9375 3.5625 8.9375 1 7 C0.1875 3.3125 0.1875 3.3125 0 0 Z " fill="#A41F31" transform="translate(411,348)"/>
<path d="M0 0 C3.09592835 3.5087188 4.74194623 6.49197399 6 11 C5.01 10.67 4.02 10.34 3 10 C3 8.68 3 7.36 3 6 C2.01 6.33 1.02 6.66 0 7 C0 4.69 0 2.38 0 0 Z " fill="#A71D32" transform="translate(489,186)"/>
<path d="M0 0 C2.97 0 5.94 0 9 0 C9.33 1.32 9.66 2.64 10 4 C6.44219804 3.39009109 3.3171411 2.4216319 0 1 C0 0.67 0 0.34 0 0 Z " fill="#AF1F37" transform="translate(260,145)"/>
<path d="M0 0 C2.79872437 2.52788007 4.45773019 4.20411134 5 8 C1.535 6.02 1.535 6.02 -2 4 C-1.34 3.67 -0.68 3.34 0 3 C0 2.01 0 1.02 0 0 Z " fill="#A91D30" transform="translate(124,110)"/>
<path d="M0 0 C0.66 0.66 1.32 1.32 2 2 C-2.75 5 -2.75 5 -5 5 C-5 5.66 -5 6.32 -5 7 C-6.32 6.67 -7.64 6.34 -9 6 C-6.03 4.02 -3.06 2.04 0 0 Z " fill="#AA1A32" transform="translate(111,375)"/>
<path d="M0 0 C2.93200474 2.85276137 5.64315404 5.65079784 8 9 C7.67 9.66 7.34 10.32 7 11 C3.11546098 8.41030732 2.13541865 6.12356704 0 2 C0 1.34 0 0.68 0 0 Z " fill="#9E1B32" transform="translate(420,363)"/>
<path d="M0 0 C0.99 0.33 1.98 0.66 3 1 C2.67 1.66 2.34 2.32 2 3 C1.01 2.67 0.02 2.34 -1 2 C-0.67 2.99 -0.34 3.98 0 5 C-3.75 6.125 -3.75 6.125 -6 5 C-1.60546875 0.99609375 -1.60546875 0.99609375 0 0 Z " fill="#A22035" transform="translate(408,44)"/>
<path d="M0 0 C-3.96 1.98 -3.96 1.98 -8 4 C-8 2.68 -8 1.36 -8 0 C-4.63458162 -1.08174162 -3.70152678 -0.92538169 0 0 Z " fill="#A71F2E" transform="translate(303,496)"/>
<path d="M0 0 C0.66 1.32 1.32 2.64 2 4 C0.625 5.5 0.625 5.5 -1 7 C-1.66 7 -2.32 7 -3 7 C-3 6.34 -3 5.68 -3 5 C-2.34 5 -1.68 5 -1 5 C-1.33 4.34 -1.66 3.68 -2 3 C-2.99 2.67 -3.98 2.34 -5 2 C-2 0 -2 0 0 0 Z " fill="#AE1B2F" transform="translate(419,195)"/>
<path d="M0 0 C0.66 0.33 1.32 0.66 2 1 C0.59240479 3.81519043 -1.22583277 4.61291638 -4 6 C-4.99 5.67 -5.98 5.34 -7 5 C-4.88437775 2.67281553 -2.94982021 1.14186589 0 0 Z " fill="#9D2031" transform="translate(473,164)"/>
<path d="M0 0 C3.43595166 1.52708963 6.11912454 3.59927045 9 6 C6.69 5.67 4.38 5.34 2 5 C1.34 3.35 0.68 1.7 0 0 Z " fill="#A31B32" transform="translate(266,88)"/>
<path d="M0 0 C0.33 0 0.66 0 1 0 C1 2.97 1 5.94 1 9 C-0.32 7.68 -1.64 6.36 -3 5 C-2.34 5 -1.68 5 -1 5 C-0.67 3.35 -0.34 1.7 0 0 Z " fill="#AF1E31" transform="translate(79,433)"/>
<path d="M0 0 C0.33 0.66 0.66 1.32 1 2 C0.34 2 -0.32 2 -1 2 C-1 2.66 -1 3.32 -1 4 C-3.5 5.625 -3.5 5.625 -6 7 C-6.66 6.34 -7.32 5.68 -8 5 C-4.04 2.525 -4.04 2.525 0 0 Z " fill="#A81C31" transform="translate(121,369)"/>
<path d="M0 0 C4 2 4 2 5.3125 4.4375 C6 7 6 7 5 10 C3.35 6.7 1.7 3.4 0 0 Z " fill="#A2213A" transform="translate(9,310)"/>
<path d="M0 0 C0.6875 1.75 0.6875 1.75 1 4 C-0.25 6.25 -0.25 6.25 -2 8 C-2.99 8 -3.98 8 -5 8 C-3.62845496 5.04590299 -2.01136276 2.55991624 0 0 Z " fill="#A52031" transform="translate(93,227)"/>
<path d="M0 0 C0.66 0.33 1.32 0.66 2 1 C2 1.99 2 2.98 2 4 C-0.97 4.66 -3.94 5.32 -7 6 C-4.74259377 3.66475218 -2.7194239 1.81294927 0 0 Z " fill="#A21E34" transform="translate(405,203)"/>
<path d="M0 0 C2.32472205 2.85306797 3.7508258 5.54074837 5 9 C2.525 8.01 2.525 8.01 0 7 C0 4.69 0 2.38 0 0 Z " fill="#A9182F" transform="translate(221,23)"/>
<path d="M0 0 C0.66 0.33 1.32 0.66 2 1 C1.34 2.98 0.68 4.96 0 7 C-0.33 6.34 -0.66 5.68 -1 5 C-2.98 5.99 -2.98 5.99 -5 7 C-4.67 6.01 -4.34 5.02 -4 4 C-3.34 4 -2.68 4 -2 4 C-2 3.34 -2 2.68 -2 2 C-1.34 2 -0.68 2 0 2 C0 1.34 0 0.68 0 0 Z " fill="#A81831" transform="translate(383,221)"/>
<path d="M0 0 C2.50037734 2.17424117 3.43628586 3.73045798 4 7 C3.01 7.33 2.02 7.66 1 8 C0.34 6.68 -0.32 5.36 -1 4 C-0.34 4 0.32 4 1 4 C0.67 2.68 0.34 1.36 0 0 Z " fill="#AC1B31" transform="translate(230,40)"/>
<path d="M0 0 C3.10551666 3.10551666 3.81323934 4.89198233 5 9 C4.01 9 3.02 9 2 9 C1.34 6.03 0.68 3.06 0 0 Z " fill="#A31E31" transform="translate(215,12)"/>
<path d="M0 0 C2.15377564 2.62198774 3.40072174 4.64404172 4 8 C1.525 7.01 1.525 7.01 -1 6 C-0.67 4.02 -0.34 2.04 0 0 Z " fill="#A81E35" transform="translate(331,464)"/>
<path d="M0 0 C0.99 0.99 1.98 1.98 3 3 C2.34 4.32 1.68 5.64 1 7 C0.01 6.67 -0.98 6.34 -2 6 C-1.34 4.02 -0.68 2.04 0 0 Z " fill="#B11E35" transform="translate(318,440)"/>
<path d="M0 0 C-1.28913487 0.67154933 -2.58140204 1.33708859 -3.875 2 C-4.59429688 2.37125 -5.31359375 2.7425 -6.0546875 3.125 C-8 4 -8 4 -10 4 C-9.67 3.01 -9.34 2.02 -9 1 C-3.79245283 -1.26415094 -3.79245283 -1.26415094 0 0 Z " fill="#9C2135" transform="translate(33,334)"/>
<path d="M0 0 C0.33 0 0.66 0 1 0 C1.33 3.3 1.66 6.6 2 10 C1.01 10.33 0.02 10.66 -1 11 C-0.67 7.37 -0.34 3.74 0 0 Z " fill="#AB2137" transform="translate(348,280)"/>
<path d="M0 0 C0.66 0.33 1.32 0.66 2 1 C0.35 2.98 -1.3 4.96 -3 7 C-3.66 5.68 -4.32 4.36 -5 3 C-2.625 1.4375 -2.625 1.4375 0 0 Z " fill="#AA1937" transform="translate(415,262)"/>
</svg>
